<mxfile host="app.diagrams.net" modified="2023-03-30T15:26:47.852Z" agent="Mozilla/5.0 (X11; Ubuntu; Linux x86_64; rv:109.0) Gecko/20100101 Firefox/111.0" etag="iIueCiS4kduLUeZxX-qM" version="21.1.2" type="device">
  <diagram name="Page-1" id="iLy2aWq5fzJ-xlgEosvc">
    <mxGraphModel dx="948" dy="534" grid="1" gridSize="10" guides="1" tooltips="1" connect="1" arrows="1" fold="1" page="1" pageScale="1" pageWidth="850" pageHeight="1100" math="0" shadow="0">
      <root>
        <mxCell id="0" />
        <mxCell id="1" parent="0" />
        <mxCell id="hMZs2TBBNb9Xxed__LDw-54" value="" style="rounded=0;whiteSpace=wrap;html=1;" vertex="1" parent="1">
          <mxGeometry x="20" y="99" width="800" height="521" as="geometry" />
        </mxCell>
        <mxCell id="hMZs2TBBNb9Xxed__LDw-2" value="" style="rounded=0;whiteSpace=wrap;html=1;" vertex="1" parent="1">
          <mxGeometry x="230" y="130" width="570" height="459" as="geometry" />
        </mxCell>
        <mxCell id="hMZs2TBBNb9Xxed__LDw-68" style="edgeStyle=orthogonalEdgeStyle;rounded=0;orthogonalLoop=1;jettySize=auto;html=1;entryX=1;entryY=0.25;entryDx=0;entryDy=0;startArrow=classicThin;startFill=1;endArrow=classicThin;endFill=1;" edge="1" parent="1" source="hMZs2TBBNb9Xxed__LDw-9" target="hMZs2TBBNb9Xxed__LDw-48">
          <mxGeometry relative="1" as="geometry" />
        </mxCell>
        <mxCell id="hMZs2TBBNb9Xxed__LDw-9" value="" style="rounded=0;whiteSpace=wrap;html=1;fillColor=#dae8fc;strokeColor=#6c8ebf;" vertex="1" parent="1">
          <mxGeometry x="530" y="149" width="230" height="130" as="geometry" />
        </mxCell>
        <mxCell id="hMZs2TBBNb9Xxed__LDw-10" value="&lt;font style=&quot;font-size: 8px;&quot;&gt;kubelet&lt;/font&gt;" style="rounded=0;whiteSpace=wrap;html=1;fillColor=#ffe6cc;strokeColor=#d79b00;" vertex="1" parent="1">
          <mxGeometry x="540" y="159" width="50" height="30" as="geometry" />
        </mxCell>
        <mxCell id="hMZs2TBBNb9Xxed__LDw-11" value="&lt;font style=&quot;font-size: 8px;&quot;&gt;container runtime&lt;br&gt;&lt;/font&gt;" style="rounded=0;whiteSpace=wrap;html=1;fillColor=#ffe6cc;strokeColor=#d79b00;" vertex="1" parent="1">
          <mxGeometry x="540" y="199" width="50" height="30" as="geometry" />
        </mxCell>
        <mxCell id="hMZs2TBBNb9Xxed__LDw-72" style="edgeStyle=orthogonalEdgeStyle;rounded=0;orthogonalLoop=1;jettySize=auto;html=1;entryX=1;entryY=0.25;entryDx=0;entryDy=0;startArrow=classicThin;startFill=1;endArrow=classicThin;endFill=1;" edge="1" parent="1" source="hMZs2TBBNb9Xxed__LDw-12" target="hMZs2TBBNb9Xxed__LDw-55">
          <mxGeometry relative="1" as="geometry">
            <Array as="points">
              <mxPoint x="420" y="254" />
              <mxPoint x="420" y="187" />
            </Array>
          </mxGeometry>
        </mxCell>
        <mxCell id="hMZs2TBBNb9Xxed__LDw-12" value="&lt;font style=&quot;font-size: 8px;&quot;&gt;kube proxy&lt;br&gt;&lt;/font&gt;" style="rounded=0;whiteSpace=wrap;html=1;fillColor=#ffe6cc;strokeColor=#d79b00;" vertex="1" parent="1">
          <mxGeometry x="540" y="239" width="50" height="30" as="geometry" />
        </mxCell>
        <mxCell id="hMZs2TBBNb9Xxed__LDw-13" value="" style="rounded=0;whiteSpace=wrap;html=1;fillColor=#d5e8d4;strokeColor=#82b366;" vertex="1" parent="1">
          <mxGeometry x="610" y="159" width="140" height="110" as="geometry" />
        </mxCell>
        <mxCell id="hMZs2TBBNb9Xxed__LDw-14" value="&lt;font style=&quot;font-size: 8px;&quot;&gt;pod&lt;/font&gt;" style="rounded=1;whiteSpace=wrap;html=1;" vertex="1" parent="1">
          <mxGeometry x="630" y="169" width="50" height="35" as="geometry" />
        </mxCell>
        <mxCell id="hMZs2TBBNb9Xxed__LDw-15" value="&lt;font style=&quot;font-size: 8px;&quot;&gt;pod&lt;/font&gt;" style="rounded=1;whiteSpace=wrap;html=1;" vertex="1" parent="1">
          <mxGeometry x="641" y="175" width="50" height="35" as="geometry" />
        </mxCell>
        <mxCell id="hMZs2TBBNb9Xxed__LDw-16" value="&lt;font style=&quot;font-size: 8px;&quot;&gt;pod&lt;/font&gt;" style="rounded=1;whiteSpace=wrap;html=1;" vertex="1" parent="1">
          <mxGeometry x="651" y="184" width="50" height="35" as="geometry" />
        </mxCell>
        <mxCell id="hMZs2TBBNb9Xxed__LDw-17" value="&lt;font style=&quot;font-size: 8px;&quot;&gt;pod&lt;/font&gt;" style="rounded=1;whiteSpace=wrap;html=1;" vertex="1" parent="1">
          <mxGeometry x="661" y="194" width="50" height="35" as="geometry" />
        </mxCell>
        <mxCell id="hMZs2TBBNb9Xxed__LDw-18" value="&lt;font style=&quot;font-size: 8px;&quot;&gt;volume&lt;/font&gt;" style="rounded=0;whiteSpace=wrap;html=1;fillColor=#e1d5e7;strokeColor=#9673a6;" vertex="1" parent="1">
          <mxGeometry x="620" y="239" width="120" height="20" as="geometry" />
        </mxCell>
        <mxCell id="hMZs2TBBNb9Xxed__LDw-19" value="&lt;font style=&quot;font-size: 7px;&quot;&gt;worker node: frontend&lt;br&gt;&lt;/font&gt;" style="text;html=1;strokeColor=none;fillColor=none;align=center;verticalAlign=middle;whiteSpace=wrap;rounded=0;" vertex="1" parent="1">
          <mxGeometry x="550" y="138" width="189" height="30" as="geometry" />
        </mxCell>
        <mxCell id="hMZs2TBBNb9Xxed__LDw-67" style="edgeStyle=orthogonalEdgeStyle;rounded=0;orthogonalLoop=1;jettySize=auto;html=1;entryX=1;entryY=0.5;entryDx=0;entryDy=0;startArrow=classicThin;startFill=1;endArrow=classicThin;endFill=1;" edge="1" parent="1" source="hMZs2TBBNb9Xxed__LDw-20" target="hMZs2TBBNb9Xxed__LDw-48">
          <mxGeometry relative="1" as="geometry" />
        </mxCell>
        <mxCell id="hMZs2TBBNb9Xxed__LDw-20" value="" style="rounded=0;whiteSpace=wrap;html=1;fillColor=#dae8fc;strokeColor=#6c8ebf;" vertex="1" parent="1">
          <mxGeometry x="530" y="290" width="230" height="130" as="geometry" />
        </mxCell>
        <mxCell id="hMZs2TBBNb9Xxed__LDw-21" value="&lt;font style=&quot;font-size: 8px;&quot;&gt;kubelet&lt;/font&gt;" style="rounded=0;whiteSpace=wrap;html=1;fillColor=#ffe6cc;strokeColor=#d79b00;" vertex="1" parent="1">
          <mxGeometry x="540" y="300" width="50" height="30" as="geometry" />
        </mxCell>
        <mxCell id="hMZs2TBBNb9Xxed__LDw-22" value="&lt;font style=&quot;font-size: 8px;&quot;&gt;container runtime&lt;br&gt;&lt;/font&gt;" style="rounded=0;whiteSpace=wrap;html=1;fillColor=#ffe6cc;strokeColor=#d79b00;" vertex="1" parent="1">
          <mxGeometry x="540" y="340" width="50" height="30" as="geometry" />
        </mxCell>
        <mxCell id="hMZs2TBBNb9Xxed__LDw-71" style="edgeStyle=orthogonalEdgeStyle;rounded=0;orthogonalLoop=1;jettySize=auto;html=1;entryX=1;entryY=0.5;entryDx=0;entryDy=0;startArrow=classicThin;startFill=1;endArrow=classicThin;endFill=1;" edge="1" parent="1" source="hMZs2TBBNb9Xxed__LDw-23" target="hMZs2TBBNb9Xxed__LDw-55">
          <mxGeometry relative="1" as="geometry">
            <Array as="points">
              <mxPoint x="500" y="395" />
              <mxPoint x="500" y="202" />
            </Array>
          </mxGeometry>
        </mxCell>
        <mxCell id="hMZs2TBBNb9Xxed__LDw-23" value="&lt;font style=&quot;font-size: 8px;&quot;&gt;kube proxy&lt;br&gt;&lt;/font&gt;" style="rounded=0;whiteSpace=wrap;html=1;fillColor=#ffe6cc;strokeColor=#d79b00;" vertex="1" parent="1">
          <mxGeometry x="540" y="380" width="50" height="30" as="geometry" />
        </mxCell>
        <mxCell id="hMZs2TBBNb9Xxed__LDw-24" value="" style="rounded=0;whiteSpace=wrap;html=1;fillColor=#d5e8d4;strokeColor=#82b366;" vertex="1" parent="1">
          <mxGeometry x="610" y="300" width="140" height="110" as="geometry" />
        </mxCell>
        <mxCell id="hMZs2TBBNb9Xxed__LDw-25" value="&lt;font style=&quot;font-size: 8px;&quot;&gt;pod&lt;/font&gt;" style="rounded=1;whiteSpace=wrap;html=1;" vertex="1" parent="1">
          <mxGeometry x="630" y="310" width="50" height="35" as="geometry" />
        </mxCell>
        <mxCell id="hMZs2TBBNb9Xxed__LDw-26" value="&lt;font style=&quot;font-size: 8px;&quot;&gt;pod&lt;/font&gt;" style="rounded=1;whiteSpace=wrap;html=1;" vertex="1" parent="1">
          <mxGeometry x="641" y="316" width="50" height="35" as="geometry" />
        </mxCell>
        <mxCell id="hMZs2TBBNb9Xxed__LDw-27" value="&lt;font style=&quot;font-size: 8px;&quot;&gt;pod&lt;/font&gt;" style="rounded=1;whiteSpace=wrap;html=1;" vertex="1" parent="1">
          <mxGeometry x="651" y="325" width="50" height="35" as="geometry" />
        </mxCell>
        <mxCell id="hMZs2TBBNb9Xxed__LDw-28" value="&lt;font style=&quot;font-size: 8px;&quot;&gt;pod&lt;/font&gt;" style="rounded=1;whiteSpace=wrap;html=1;" vertex="1" parent="1">
          <mxGeometry x="661" y="335" width="50" height="35" as="geometry" />
        </mxCell>
        <mxCell id="hMZs2TBBNb9Xxed__LDw-29" value="&lt;font style=&quot;font-size: 8px;&quot;&gt;volume&lt;/font&gt;" style="rounded=0;whiteSpace=wrap;html=1;fillColor=#e1d5e7;strokeColor=#9673a6;" vertex="1" parent="1">
          <mxGeometry x="620" y="380" width="120" height="20" as="geometry" />
        </mxCell>
        <mxCell id="hMZs2TBBNb9Xxed__LDw-30" value="&lt;font style=&quot;font-size: 7px;&quot;&gt;worker node: backed service 1&lt;br&gt;&lt;/font&gt;" style="text;html=1;strokeColor=none;fillColor=none;align=center;verticalAlign=middle;whiteSpace=wrap;rounded=0;" vertex="1" parent="1">
          <mxGeometry x="550" y="279" width="189" height="30" as="geometry" />
        </mxCell>
        <mxCell id="hMZs2TBBNb9Xxed__LDw-69" style="edgeStyle=orthogonalEdgeStyle;rounded=0;orthogonalLoop=1;jettySize=auto;html=1;entryX=1;entryY=0.75;entryDx=0;entryDy=0;startArrow=classicThin;startFill=1;endArrow=classicThin;endFill=1;" edge="1" parent="1" source="hMZs2TBBNb9Xxed__LDw-31" target="hMZs2TBBNb9Xxed__LDw-48">
          <mxGeometry relative="1" as="geometry" />
        </mxCell>
        <mxCell id="hMZs2TBBNb9Xxed__LDw-31" value="" style="rounded=0;whiteSpace=wrap;html=1;fillColor=#dae8fc;strokeColor=#6c8ebf;" vertex="1" parent="1">
          <mxGeometry x="529.5" y="431" width="230" height="130" as="geometry" />
        </mxCell>
        <mxCell id="hMZs2TBBNb9Xxed__LDw-32" value="&lt;font style=&quot;font-size: 8px;&quot;&gt;kubelet&lt;/font&gt;" style="rounded=0;whiteSpace=wrap;html=1;fillColor=#ffe6cc;strokeColor=#d79b00;" vertex="1" parent="1">
          <mxGeometry x="539.5" y="441" width="50" height="30" as="geometry" />
        </mxCell>
        <mxCell id="hMZs2TBBNb9Xxed__LDw-33" value="&lt;font style=&quot;font-size: 8px;&quot;&gt;container runtime&lt;br&gt;&lt;/font&gt;" style="rounded=0;whiteSpace=wrap;html=1;fillColor=#ffe6cc;strokeColor=#d79b00;" vertex="1" parent="1">
          <mxGeometry x="539.5" y="481" width="50" height="30" as="geometry" />
        </mxCell>
        <mxCell id="hMZs2TBBNb9Xxed__LDw-70" style="edgeStyle=orthogonalEdgeStyle;rounded=0;orthogonalLoop=1;jettySize=auto;html=1;entryX=1;entryY=0.75;entryDx=0;entryDy=0;startArrow=classicThin;startFill=1;endArrow=classicThin;endFill=1;" edge="1" parent="1" source="hMZs2TBBNb9Xxed__LDw-34" target="hMZs2TBBNb9Xxed__LDw-55">
          <mxGeometry relative="1" as="geometry" />
        </mxCell>
        <mxCell id="hMZs2TBBNb9Xxed__LDw-34" value="&lt;font style=&quot;font-size: 8px;&quot;&gt;kube proxy&lt;br&gt;&lt;/font&gt;" style="rounded=0;whiteSpace=wrap;html=1;fillColor=#ffe6cc;strokeColor=#d79b00;" vertex="1" parent="1">
          <mxGeometry x="539.5" y="521" width="50" height="30" as="geometry" />
        </mxCell>
        <mxCell id="hMZs2TBBNb9Xxed__LDw-35" value="" style="rounded=0;whiteSpace=wrap;html=1;fillColor=#d5e8d4;strokeColor=#82b366;" vertex="1" parent="1">
          <mxGeometry x="609.5" y="441" width="140" height="110" as="geometry" />
        </mxCell>
        <mxCell id="hMZs2TBBNb9Xxed__LDw-36" value="&lt;font style=&quot;font-size: 8px;&quot;&gt;pod&lt;/font&gt;" style="rounded=1;whiteSpace=wrap;html=1;" vertex="1" parent="1">
          <mxGeometry x="629.5" y="451" width="50" height="35" as="geometry" />
        </mxCell>
        <mxCell id="hMZs2TBBNb9Xxed__LDw-37" value="&lt;font style=&quot;font-size: 8px;&quot;&gt;pod&lt;/font&gt;" style="rounded=1;whiteSpace=wrap;html=1;" vertex="1" parent="1">
          <mxGeometry x="640.5" y="457" width="50" height="35" as="geometry" />
        </mxCell>
        <mxCell id="hMZs2TBBNb9Xxed__LDw-38" value="&lt;font style=&quot;font-size: 8px;&quot;&gt;pod&lt;/font&gt;" style="rounded=1;whiteSpace=wrap;html=1;" vertex="1" parent="1">
          <mxGeometry x="650.5" y="466" width="50" height="35" as="geometry" />
        </mxCell>
        <mxCell id="hMZs2TBBNb9Xxed__LDw-39" value="&lt;font style=&quot;font-size: 8px;&quot;&gt;pod&lt;/font&gt;" style="rounded=1;whiteSpace=wrap;html=1;" vertex="1" parent="1">
          <mxGeometry x="660.5" y="476" width="50" height="35" as="geometry" />
        </mxCell>
        <mxCell id="hMZs2TBBNb9Xxed__LDw-40" value="&lt;font style=&quot;font-size: 8px;&quot;&gt;volume&lt;/font&gt;" style="rounded=0;whiteSpace=wrap;html=1;fillColor=#e1d5e7;strokeColor=#9673a6;" vertex="1" parent="1">
          <mxGeometry x="619.5" y="521" width="120" height="20" as="geometry" />
        </mxCell>
        <mxCell id="hMZs2TBBNb9Xxed__LDw-41" value="&lt;font style=&quot;font-size: 7px;&quot;&gt;worker node: backend service 2&lt;br&gt;&lt;/font&gt;" style="text;html=1;strokeColor=none;fillColor=none;align=center;verticalAlign=middle;whiteSpace=wrap;rounded=0;" vertex="1" parent="1">
          <mxGeometry x="549.5" y="420" width="189" height="30" as="geometry" />
        </mxCell>
        <mxCell id="hMZs2TBBNb9Xxed__LDw-48" value="" style="rounded=0;whiteSpace=wrap;html=1;fillColor=#fff2cc;strokeColor=#d6b656;" vertex="1" parent="1">
          <mxGeometry x="260" y="290.5" width="230" height="130" as="geometry" />
        </mxCell>
        <mxCell id="hMZs2TBBNb9Xxed__LDw-59" style="edgeStyle=orthogonalEdgeStyle;rounded=0;orthogonalLoop=1;jettySize=auto;html=1;entryX=0;entryY=0.5;entryDx=0;entryDy=0;exitX=1;exitY=0.5;exitDx=0;exitDy=0;exitPerimeter=0;startArrow=classicThin;startFill=1;strokeWidth=1;endArrow=classicThin;endFill=1;" edge="1" parent="1" source="hMZs2TBBNb9Xxed__LDw-49" target="hMZs2TBBNb9Xxed__LDw-52">
          <mxGeometry relative="1" as="geometry">
            <Array as="points">
              <mxPoint x="340" y="350" />
              <mxPoint x="340" y="350" />
            </Array>
          </mxGeometry>
        </mxCell>
        <mxCell id="hMZs2TBBNb9Xxed__LDw-49" value="&lt;div style=&quot;font-size: 11px;&quot;&gt;&lt;font style=&quot;font-size: 11px;&quot;&gt;API&lt;/font&gt;&lt;/div&gt;&lt;div style=&quot;font-size: 11px;&quot;&gt;&lt;font style=&quot;font-size: 11px;&quot;&gt;server&lt;font style=&quot;font-size: 11px;&quot;&gt;&lt;br&gt;&lt;/font&gt;&lt;/font&gt;&lt;/div&gt;" style="rounded=0;whiteSpace=wrap;html=1;fillColor=#f8cecc;strokeColor=#b85450;" vertex="1" parent="1">
          <mxGeometry x="280" y="310.5" width="50" height="80" as="geometry" />
        </mxCell>
        <mxCell id="hMZs2TBBNb9Xxed__LDw-64" style="edgeStyle=orthogonalEdgeStyle;rounded=0;orthogonalLoop=1;jettySize=auto;html=1;entryX=1;entryY=0.75;entryDx=0;entryDy=0;startArrow=classicThin;startFill=1;endArrow=classicThin;endFill=1;" edge="1" parent="1" source="hMZs2TBBNb9Xxed__LDw-50" target="hMZs2TBBNb9Xxed__LDw-49">
          <mxGeometry relative="1" as="geometry" />
        </mxCell>
        <mxCell id="hMZs2TBBNb9Xxed__LDw-50" value="&lt;div style=&quot;font-size: 8px;&quot; align=&quot;center&quot;&gt;etcd&lt;/div&gt;" style="shape=cylinder3;whiteSpace=wrap;html=1;boundedLbl=1;backgroundOutline=1;size=12.333333333333343;align=center;fillColor=#e1d5e7;strokeColor=#9673a6;" vertex="1" parent="1">
          <mxGeometry x="390" y="370.5" width="50" height="40" as="geometry" />
        </mxCell>
        <mxCell id="hMZs2TBBNb9Xxed__LDw-62" style="edgeStyle=orthogonalEdgeStyle;rounded=0;orthogonalLoop=1;jettySize=auto;html=1;entryX=1;entryY=0.125;entryDx=0;entryDy=0;entryPerimeter=0;startArrow=classicThin;startFill=1;endArrow=classicThin;endFill=1;" edge="1" parent="1" source="hMZs2TBBNb9Xxed__LDw-51" target="hMZs2TBBNb9Xxed__LDw-49">
          <mxGeometry relative="1" as="geometry" />
        </mxCell>
        <mxCell id="hMZs2TBBNb9Xxed__LDw-51" value="&lt;div align=&quot;center&quot;&gt;&lt;font style=&quot;font-size: 8px;&quot;&gt;controller manager&lt;/font&gt;&lt;br&gt;&lt;/div&gt;" style="rounded=0;whiteSpace=wrap;html=1;fillColor=#e1d5e7;strokeColor=#9673a6;" vertex="1" parent="1">
          <mxGeometry x="350" y="310.5" width="120" height="20" as="geometry" />
        </mxCell>
        <mxCell id="hMZs2TBBNb9Xxed__LDw-52" value="&lt;font style=&quot;font-size: 8px;&quot;&gt;scheduler&lt;/font&gt;" style="rounded=0;whiteSpace=wrap;html=1;fillColor=#e1d5e7;strokeColor=#9673a6;" vertex="1" parent="1">
          <mxGeometry x="350" y="340.5" width="120" height="20" as="geometry" />
        </mxCell>
        <mxCell id="hMZs2TBBNb9Xxed__LDw-53" value="&lt;font style=&quot;font-size: 7px;&quot;&gt;master node&lt;/font&gt;" style="text;html=1;strokeColor=none;fillColor=none;align=center;verticalAlign=middle;whiteSpace=wrap;rounded=0;" vertex="1" parent="1">
          <mxGeometry x="335" y="284.5" width="80" height="20" as="geometry" />
        </mxCell>
        <mxCell id="hMZs2TBBNb9Xxed__LDw-55" value="user" style="rounded=0;whiteSpace=wrap;html=1;" vertex="1" parent="1">
          <mxGeometry x="70" y="171.5" width="120" height="60" as="geometry" />
        </mxCell>
        <mxCell id="hMZs2TBBNb9Xxed__LDw-57" style="edgeStyle=orthogonalEdgeStyle;rounded=0;orthogonalLoop=1;jettySize=auto;html=1;" edge="1" parent="1" source="hMZs2TBBNb9Xxed__LDw-56" target="hMZs2TBBNb9Xxed__LDw-49">
          <mxGeometry relative="1" as="geometry" />
        </mxCell>
        <mxCell id="hMZs2TBBNb9Xxed__LDw-58" value="&lt;font style=&quot;font-size: 7px;&quot;&gt;kubectl&lt;/font&gt;" style="edgeLabel;html=1;align=center;verticalAlign=middle;resizable=0;points=[];" vertex="1" connectable="0" parent="hMZs2TBBNb9Xxed__LDw-57">
          <mxGeometry x="-0.8" y="0.11" relative="1" as="geometry">
            <mxPoint y="-9" as="offset" />
          </mxGeometry>
        </mxCell>
        <mxCell id="hMZs2TBBNb9Xxed__LDw-56" value="developer" style="rounded=0;whiteSpace=wrap;html=1;" vertex="1" parent="1">
          <mxGeometry x="70" y="463.5" width="120" height="60" as="geometry" />
        </mxCell>
      </root>
    </mxGraphModel>
  </diagram>
</mxfile>
